<?xml version="1.0" encoding="UTF-8"?>
<svg width="16px" height="16px" viewBox="0 0 16 16" version="1.1" xmlns="http://www.w3.org/2000/svg" xmlns:xlink="http://www.w3.org/1999/xlink">
    <title>E4BD3591-0991-4E58-BDF3-56E8F1ECCE91</title>
    <defs>
        <path d="M5.49686033,3.43735561 C3.50884,4.10393492 1.81485358,5.56180838 0.871311916,7.4067279 C0.542169477,8.04320363 0.30518692,8.71838397 0.160364247,9.41936737 C-0.199498154,11.1567741 0.0506501002,13.0102946 0.86692335,14.5928829 C1.39793982,15.6250057 2.16155028,16.5453152 3.08314911,17.2635007 C3.95647372,17.9429815 4.97023243,18.4504419 6.04981963,18.7299752 C7.41027505,19.0869177 8.85850178,19.0783166 10.2277343,18.7729803 C11.4653099,18.493447 12.637057,17.912878 13.5718215,17.0699777 C14.5592488,16.1797718 15.2658079,15.0100326 15.638836,13.7499826 C16.0469727,12.3781194 16.0996355,10.9116449 15.8450986,9.50107709 C13.2865647,9.50107709 10.7236423,9.50107709 8.16510838,9.50107709 C8.16510838,10.5418009 8.16510838,11.5825248 8.16510838,12.6232486 C9.64844364,12.6232486 11.1317789,12.6232486 12.6151142,12.6232486 C12.4439601,13.6209673 11.838338,14.5326758 10.9825677,15.0960428 C10.4427741,15.4529853 9.82398627,15.6809124 9.18325566,15.7927257 C8.54252504,15.9002385 7.87546303,15.91314 7.23473241,15.7884252 C6.5808361,15.6594098 5.96204831,15.3927781 5.41786615,15.0186336 C4.54893011,14.4208625 3.88625666,13.5478586 3.54833709,12.5630414 C3.20164039,11.5610222 3.19725182,10.4471897 3.54833709,9.44947095 C3.79409678,8.74418704 4.19784484,8.09480977 4.73324987,7.56154632 C5.39153475,6.89926752 6.24730509,6.42621123 7.17329249,6.23268821 C7.96323435,6.06926876 8.79706186,6.09937234 9.56944945,6.32729946 C10.2277343,6.52082249 10.8333564,6.87776496 11.3292644,7.34222022 C11.8295609,6.85196189 12.3298574,6.36170356 12.8301539,5.87144522 C13.0934678,5.60911401 13.3699475,5.35538382 13.6244843,5.08445158 C12.8652624,4.39636971 11.969995,3.84160371 10.9957334,3.48896175 C9.24030701,2.85248602 7.26545237,2.83958448 5.49686033,3.43735561 Z" id="path-1"></path>
    </defs>
    <g id="MVP" stroke="none" stroke-width="1" fill="none" fill-rule="evenodd">
        <g id="MVP_1.GS2-Signin1" transform="translate(-757.000000, -261.000000)">
            <g id="Group-2" transform="translate(757.000000, 258.000000)">
                <mask id="mask-2" fill="white">
                    <use xlink:href="#path-1"></use>
                </mask>
                <use id="🎨-Icon-Fill" fill="#FFFFFF" xlink:href="#path-1"></use>
            </g>
        </g>
    </g>
</svg>